<svg xmlns="http://www.w3.org/2000/svg" width="180" height="180" viewBox="0 0 180 180">
    <g fill="none" fill-rule="evenodd">
        <path fill="#EEFFD5" d="M108.923 151.465c49.607 0 63.077-22.88 63.077-74.625 0-51.745-26.59-40.298-76.197-40.298S8 45.244 8 96.99c0 51.745 51.316 54.476 100.923 54.476z"/>
        <ellipse cx="90" cy="125" fill="#000" fill-opacity=".093" rx="40" ry="7"/>
        <rect width="72" height="97" x="53.25" y="28.5" fill="#FFF" stroke="#1B1E35" stroke-width="2" rx="15"/>
        <path fill="#2C333D" fill-rule="nonzero" d="M64.566 44.82c21.351-6.104 50.15-.58 79.23 18.384.463.301.593.921.292 1.384-.302.462-.922.593-1.384.291-28.617-18.662-56.824-24.072-77.588-18.137-17.056 4.876-23.49 16.291-13.932 23.643 6.733 5.18 16.962 6.783 37.662 7.242l8.057.153c13.726.286 19.986.766 26.143 2.319l.28.071c9.063 2.335 13.85 6.886 13.85 14.47 0 6.356-3.556 10.814-10.436 14.016l-.564.258c-4.835 2.161-10.595 3.62-20.873 5.54l-10.575 1.923-2.756.517c-1.755.335-3.363.655-4.917.98l-.58.121c-20.524 4.34-33.48 10.29-41.42 21.097-.326.445-.952.54-1.397.214-.445-.327-.54-.953-.214-1.398 8.21-11.175 21.343-17.293 41.888-21.714l.729-.155c2.136-.452 4.35-.89 6.887-1.365l9.494-1.727c11.919-2.164 18.117-3.669 23.184-5.98l.27-.124c6.235-2.901 9.28-6.72 9.28-12.203 0-6.416-3.944-10.272-11.94-12.425l-.41-.108c-5.778-1.489-11.661-1.996-24.188-2.288l-8.465-.164c-22.1-.429-32.844-2.02-40.208-7.684-11.237-8.645-3.767-21.901 14.601-27.152z"/>
        <rect width="70" height="48" x="54.25" y="57.5" fill="#FFF" rx="15"/>
        <rect width="32" height="8" x="83.75" y="54" fill="#FFF" stroke="#1B1E35" rx="4"/>
        <rect width="15" height="15" x="62.75" y="51" fill="#FFF" stroke="#1B1E35" rx="7"/>
        <rect width="16" height="16" x="62.25" y="71.5" fill="#90C444" rx="7"/>
        <path fill="#FFF" fill-rule="nonzero" d="M69.777 83.18c-.454.426-1.19.426-1.643 0l-2.544-2.388c-.453-.426-.453-1.116 0-1.542.453-.426 1.189-.426 1.642 0l1.516 1.423c.115.107.3.107.415 0l4.105-3.854c.453-.425 1.189-.425 1.642 0 .218.205.34.482.34.771 0 .29-.122.567-.34.77l-5.133 4.82z"/>
        <rect width="15" height="15" x="62.75" y="91" fill="#FFF" stroke="#1B1E35" rx="7"/>
        <rect width="32" height="8" x="83.75" y="94" fill="#FFF" stroke="#1B1E35" rx="4"/>
        <rect width="32" height="8" x="83.75" y="74" fill="#FFF" stroke="#1B1E35" rx="4"/>
    </g>
</svg>
